<svg width="16" height="18" viewBox="0 0 16 18" fill="none" xmlns="http://www.w3.org/2000/svg">
<g clip-path="url(#clip0_1_3321)">
<path d="M7.87495 0C7.25268 0 6.74995 0.502734 6.74995 1.125V1.7543C4.20112 2.15859 2.24995 4.36641 2.24995 7.03125V8.20547C2.24995 9.80156 1.70502 11.352 0.710103 12.5965L0.186274 13.2539C-0.0176318 13.507 -0.0563037 13.8551 0.0843213 14.1469C0.224946 14.4387 0.520259 14.625 0.843696 14.625H14.9062C15.2296 14.625 15.5249 14.4387 15.6656 14.1469C15.8062 13.8551 15.7675 13.507 15.5636 13.2539L15.0398 12.6C14.0449 11.352 13.4999 9.80156 13.4999 8.20547V7.03125C13.4999 4.36641 11.5488 2.15859 8.99995 1.7543V1.125C8.99995 0.502734 8.49721 0 7.87495 0ZM7.87495 3.375H8.1562C10.1742 3.375 11.8124 5.01328 11.8124 7.03125V8.20547C11.8124 9.88945 12.3011 11.5312 13.2081 12.9375H2.54174C3.44877 11.5312 3.93745 9.88945 3.93745 8.20547V7.03125C3.93745 5.01328 5.57573 3.375 7.5937 3.375H7.87495ZM10.1249 15.75H7.87495H5.62495C5.62495 16.3477 5.86049 16.9207 6.28237 17.3426C6.70424 17.7645 7.27729 18 7.87495 18C8.4726 18 9.04565 17.7645 9.46752 17.3426C9.8894 16.9207 10.1249 16.3477 10.1249 15.75Z" fill="#525252"/>
</g>
<defs>
<clipPath id="clip0_1_3321">
<path d="M0 0H15.75V18H0V0Z" fill="white"/>
</clipPath>
</defs>
</svg>
